<?xml version="1.0" encoding="UTF-8" standalone="no"?>
<svg
   xmlns:dc="http://purl.org/dc/elements/1.1/"
   xmlns:cc="http://creativecommons.org/ns#"
   xmlns:rdf="http://www.w3.org/1999/02/22-rdf-syntax-ns#"
   xmlns:svg="http://www.w3.org/2000/svg"
   xmlns="http://www.w3.org/2000/svg"
   version="1.1"
   id="svg6168"
   viewBox="0 0 744.09448819 1052.3622047"
   height="297mm"
   width="210mm">
  <defs
     id="defs6170" />
  <metadata
     id="metadata6173">
    <rdf:RDF>
      <cc:Work
         rdf:about="">
        <dc:format>image/svg+xml</dc:format>
        <dc:type
           rdf:resource="http://purl.org/dc/dcmitype/StillImage" />
        <dc:title></dc:title>
      </cc:Work>
    </rdf:RDF>
  </metadata>
  <g
     id="layer1">
    <g
       transform="matrix(5.2127255,0,0,5.1662522,411.20428,-1732.9892)"
       id="g10012-3-7-1-7">
      <g
         style="fill:none;stroke:#0000ff;stroke-width:0.99977201;stroke-linecap:round;stroke-linejoin:round;stroke-miterlimit:4;stroke-dasharray:none"
         id="g9799-2-2-8-4"
         transform="matrix(0.67978951,0,0,1.1476004,-45.327757,-52.800763)" />
      <g
         style="fill:none;stroke:#0000ff;stroke-width:0.99977201;stroke-linecap:round;stroke-linejoin:round;stroke-miterlimit:4;stroke-dasharray:none"
         id="g9799-5-3-7-3-2"
         transform="matrix(-0.67978952,0,0,-1.1476004,25.974507,879.50983)">
        <path
           id="line1565-3-1-6-8-4"
           d="m 67,414.70001 -7.25,0 c 0,0 -1.720716,9.9409 -7.25,9.76013 -5.996937,-0.19605 -7.25,-9.76013 -7.25,-9.76013 l -7.25,0"
           style="stroke-width:0.99977201" />
        <path
           id="line1567-8-8-3-4-0"
           d="m 38,414.70001 0,-3.12834 c 0,0 -29.5995511,-20.16406 -27.034376,-23.93557 2.572618,-3.78244 26.016059,7.43478 26.016059,7.43478 l 32.520059,0 c 0,0 22.185258,-10.66257 24.617253,-8.14273 3.989514,4.13361 -27.230258,24.72045 -27.230258,24.72045 l 0,3.05141"
           style="stroke-width:0.99977201" />
      </g>
    </g>
  </g>
</svg>
