  0
SECTION
  2
HEADER
  9
$ACADVER
  1
AC1014
  9
$HANDSEED
  5
FFFF
  9
$MEASUREMENT
 70
     1
  0
ENDSEC
  0
SECTION
  2
TABLES
  0
TABLE
  2
VPORT
  5
8
330
0
100
AcDbSymbolTable
 70
     4
  0
VPORT
  5
2E
330
8
100
AcDbSymbolTableRecord
100
AcDbViewportTableRecord
  2
*ACTIVE
 70
     0
 10
0.0
 20
0.0
 11
1.0
 21
1.0
 12
210.0
 22
148.5
 13
0.0
 23
0.0
 14
10.0
 24
10.0
 15
10.0
 25
10.0
 16
0.0
 26
0.0
 36
1.0
 17
0.0
 27
0.0
 37
0.0
 40
341.0
 41
1.24
 42
50.0
 43
0.0
 44
0.0
 50
0.0
 51
0.0
 71
     0
 72
   100
 73
     1
 74
     3
 75
     0
 76
     0
 77
     0
 78
     0
  0
ENDTAB
  0
TABLE
  2
LTYPE
  5
5
330
0
100
AcDbSymbolTable
 70
     1
  0
LTYPE
  5
14
330
5
100
AcDbSymbolTableRecord
100
AcDbLinetypeTableRecord
  2
BYBLOCK
 70
     0
  3

 72
    65
 73
     0
 40
0.0
  0
LTYPE
  5
15
330
5
100
AcDbSymbolTableRecord
100
AcDbLinetypeTableRecord
  2
BYLAYER
 70
     0
  3

 72
    65
 73
     0
 40
0.0
  0
LTYPE
  5
16
330
5
100
AcDbSymbolTableRecord
100
AcDbLinetypeTableRecord
  2
CONTINUOUS
 70
     0
  3
Solid line
 72
    65
 73
     0
 40
0.0
  0
ENDTAB
  0
TABLE
  2
LAYER
  5
2
100
AcDbSymbolTable
 70
1
  0
LAYER
  5
50
100
AcDbSymbolTableRecord
100
AcDbLayerTableRecord
  2
0
 70
0
  6
CONTINUOUS
  0
ENDTAB
  0
TABLE
  2
STYLE
  5
3
330
0
100
AcDbSymbolTable
 70
     1
  0
STYLE
  5
11
330
3
100
AcDbSymbolTableRecord
100
AcDbTextStyleTableRecord
  2
STANDARD
 70
     0
 40
0.0
 41
1.0
 50
0.0
 71
     0
 42
2.5
  3
txt
  4

  0
ENDTAB
  0
TABLE
  2
VIEW
  5
6
330
0
100
AcDbSymbolTable
 70
     0
  0
ENDTAB
  0
TABLE
  2
UCS
  5
7
330
0
100
AcDbSymbolTable
 70
     0
  0
ENDTAB
  0
TABLE
  2
APPID
  5
9
330
0
100
AcDbSymbolTable
 70
     2
  0
APPID
  5
12
330
9
100
AcDbSymbolTableRecord
100
AcDbRegAppTableRecord
  2
ACAD
 70
     0
  0
ENDTAB
  0
TABLE
  2
DIMSTYLE
  5
A
330
0
100
AcDbSymbolTable
 70
     1
  0
DIMSTYLE
105
27
330
A
100
AcDbSymbolTableRecord
100
AcDbDimStyleTableRecord
  2
ISO-25
 70
     0
  3

  4

  5

  6

  7

 40
1.0
 41
2.5
 42
0.625
 43
3.75
 44
1.25
 45
0.0
 46
0.0
 47
0.0
 48
0.0
140
2.5
141
2.5
142
0.0
143
0.03937007874016
144
1.0
145
0.0
146
1.0
147
0.625
 71
     0
 72
     0
 73
     0
 74
     0
 75
     0
 76
     0
 77
     1
 78
     8
170
     0
171
     3
172
     1
173
     0
174
     0
175
     0
176
     0
177
     0
178
     0
270
     2
271
     2
272
     2
273
     2
274
     3
340
11
275
     0
280
     0
281
     0
282
     0
283
     0
284
     8
285
     0
286
     0
287
     3
288
     0
  0
ENDTAB
  0
TABLE
  2
BLOCK_RECORD
  5
1
330
0
100
AcDbSymbolTable
 70
     1
  0
BLOCK_RECORD
  5
1F
330
1
100
AcDbSymbolTableRecord
100
AcDbBlockTableRecord
  2
*MODEL_SPACE
  0
BLOCK_RECORD
  5
1B
330
1
100
AcDbSymbolTableRecord
100
AcDbBlockTableRecord
  2
*PAPER_SPACE
  0
ENDTAB
  0
ENDSEC
  0
SECTION
  2
BLOCKS
  0
BLOCK
  5
20
330
1F
100
AcDbEntity
  8
0
100
AcDbBlockBegin
  2
*MODEL_SPACE
 70
     0
 10
0.0
 20
0.0
 30
0.0
  3
*MODEL_SPACE
  1

  0
ENDBLK
  5
21
330
1F
100
AcDbEntity
  8
0
100
AcDbBlockEnd
  0
BLOCK
  5
1C
330
1B
100
AcDbEntity
 67
     1
  8
0
100
AcDbBlockBegin
  2
*PAPER_SPACE
  1

  0
ENDBLK
  5
1D
330
1B
100
AcDbEntity
 67
     1
  8
0
100
AcDbBlockEnd
  0
ENDSEC
  0
SECTION
  2
ENTITIES
  0
LINE
  5
100
100
AcDbEntity
  8
0
 62
7
100
AcDbLine
 10
98.595276
 20
155.071209
 30
0.0
 11
93.559026
 21
145.063808
 31
0.0
  0
LINE
  5
101
100
AcDbEntity
  8
0
 62
7
100
AcDbLine
 10
93.559026
 20
145.063808
 30
0.0
 11
85.845571
 21
122.051631
 31
0.0
  0
LINE
  5
102
100
AcDbEntity
  8
0
 62
7
100
AcDbLine
 10
85.845571
 20
122.051631
 30
0.0
 11
86.970399
 21
90.048974
 31
0.0
  0
LINE
  5
103
100
AcDbEntity
  8
0
 62
7
100
AcDbLine
 10
86.970399
 20
90.048974
 30
0.0
 11
92.249650
 21
72.782119
 31
0.0
  0
LINE
  5
104
100
AcDbEntity
  8
0
 62
7
100
AcDbLine
 10
92.249650
 20
72.782119
 30
0.0
 11
77.488294
 21
55.584510
 31
0.0
  0
SPLINE
  5
105
100
AcDbEntity
  8
0
 62
7
100
AcDbSpline
 70
8
 71
3
 72
8
 73
4
 74
0
 40
0
 40
0
 40
0
 40
0
 40
1
 40
1
 40
1
 40
1
 10
77.488294
 20
55.584510
 30
0.0
 10
77.488294
 20
55.584510
 30
0.0
 10
75.667263
 20
50.018947
 30
0.0
 10
77.702901
 20
38.459477
 30
0.0
  0
SPLINE
  5
106
100
AcDbEntity
  8
0
 62
7
100
AcDbSpline
 70
8
 71
3
 72
8
 73
4
 74
0
 40
0
 40
0
 40
0
 40
0
 40
1
 40
1
 40
1
 40
1
 10
77.702901
 20
38.459477
 30
0.0
 10
79.684970
 20
26.846493
 30
0.0
 10
89.969938
 20
23.153897
 30
0.0
 10
89.969938
 20
23.153897
 30
0.0
  0
LINE
  5
107
100
AcDbEntity
  8
0
 62
7
100
AcDbLine
 10
89.969938
 20
23.153897
 30
0.0
 11
88.041782
 21
28.505468
 31
0.0
  0
LINE
  5
108
100
AcDbEntity
  8
0
 62
7
100
AcDbLine
 10
88.041782
 20
28.505468
 30
0.0
 11
86.809233
 21
34.446009
 31
0.0
  0
LINE
  5
109
100
AcDbEntity
  8
0
 62
7
100
AcDbLine
 10
86.809233
 20
34.446009
 30
0.0
 11
87.934896
 21
40.974673
 31
0.0
  0
LINE
  5
10a
100
AcDbEntity
  8
0
 62
7
100
AcDbLine
 10
87.934896
 20
40.974673
 30
0.0
 11
98.593605
 21
52.033201
 31
0.0
  0
LINE
  5
10b
100
AcDbEntity
  8
0
 62
7
100
AcDbLine
 10
98.593605
 20
52.033201
 30
0.0
 11
99.880434
 21
47.824519
 31
0.0
  0
LINE
  5
10c
100
AcDbEntity
  8
0
 62
7
100
AcDbLine
 10
99.880434
 20
47.824519
 30
0.0
 11
113.754961
 21
31.395235
 31
0.0
  0
LINE
  5
10d
100
AcDbEntity
  8
0
 62
7
100
AcDbLine
 10
113.754961
 20
31.395235
 30
0.0
 11
117.826714
 21
21.334444
 31
0.0
  0
LINE
  5
10e
100
AcDbEntity
  8
0
 62
7
100
AcDbLine
 10
117.826714
 20
21.334444
 30
0.0
 11
129.504200
 21
14.537986
 31
0.0
  0
LINE
  5
10f
100
AcDbEntity
  8
0
 62
7
100
AcDbLine
 10
129.504200
 20
14.537986
 30
0.0
 11
141.289402
 21
16.571834
 31
0.0
  0
LINE
  5
110
100
AcDbEntity
  8
0
 62
7
100
AcDbLine
 10
141.289402
 20
16.571834
 30
0.0
 11
152.967718
 21
29.307996
 31
0.0
  0
LINE
  5
111
100
AcDbEntity
  8
0
 62
7
100
AcDbLine
 10
152.967718
 20
29.307996
 30
0.0
 11
159.128796
 21
31.502016
 31
0.0
  0
LINE
  5
112
100
AcDbEntity
  8
0
 62
7
100
AcDbLine
 10
159.128796
 20
31.502016
 30
0.0
 11
159.396015
 21
26.792800
 31
0.0
  0
LINE
  5
113
100
AcDbEntity
  8
0
 62
7
100
AcDbLine
 10
159.396015
 20
26.792800
 30
0.0
 11
138.343310
 21
9.078801
 31
0.0
  0
LINE
  5
114
100
AcDbEntity
  8
0
 62
7
100
AcDbLine
 10
138.343310
 20
9.078801
 30
0.0
 11
137.325368
 21
3.727229
 31
0.0
  0
LINE
  5
115
100
AcDbEntity
  8
0
 62
7
100
AcDbLine
 10
137.325368
 20
3.727229
 30
0.0
 11
144.986211
 21
4.262800
 31
0.0
  0
LINE
  5
116
100
AcDbEntity
  8
0
 62
7
100
AcDbLine
 10
144.986211
 20
4.262800
 30
0.0
 11
144.718159
 21
5.279725
 31
0.0
  0
LINE
  5
117
100
AcDbEntity
  8
0
 62
7
100
AcDbLine
 10
144.718159
 20
5.279725
 30
0.0
 11
138.986308
 21
4.851766
 31
0.0
  0
LINE
  5
118
100
AcDbEntity
  8
0
 62
7
100
AcDbLine
 10
138.986308
 20
4.851766
 30
0.0
 11
139.414690
 21
8.008484
 31
0.0
  0
LINE
  5
119
100
AcDbEntity
  8
0
 62
7
100
AcDbLine
 10
139.414690
 20
8.008484
 30
0.0
 11
160.895781
 21
26.204669
 31
0.0
  0
LINE
  5
11a
100
AcDbEntity
  8
0
 62
7
100
AcDbLine
 10
160.895781
 20
26.204669
 30
0.0
 11
160.895781
 21
33.696870
 31
0.0
  0
LINE
  5
11b
100
AcDbEntity
  8
0
 62
7
100
AcDbLine
 10
160.895781
 20
33.696870
 30
0.0
 11
151.093012
 21
30.218140
 31
0.0
  0
LINE
  5
11c
100
AcDbEntity
  8
0
 62
7
100
AcDbLine
 10
151.093012
 20
30.218140
 30
0.0
 11
140.968738
 21
18.658244
 31
0.0
  0
LINE
  5
11d
100
AcDbEntity
  8
0
 62
7
100
AcDbLine
 10
140.968738
 20
18.658244
 30
0.0
 11
129.986859
 21
16.571834
 31
0.0
  0
LINE
  5
11e
100
AcDbEntity
  8
0
 62
7
100
AcDbLine
 10
129.986859
 20
16.571834
 30
0.0
 11
119.540257
 21
22.404761
 31
0.0
  0
LINE
  5
11f
100
AcDbEntity
  8
0
 62
7
100
AcDbLine
 10
119.540257
 20
22.404761
 30
0.0
 11
116.862222
 21
31.556240
 31
0.0
  0
LINE
  5
120
100
AcDbEntity
  8
0
 62
7
100
AcDbLine
 10
116.862222
 20
31.556240
 30
0.0
 11
126.611547
 21
49.590584
 31
0.0
  0
LINE
  5
121
100
AcDbEntity
  8
0
 62
7
100
AcDbLine
 10
126.611547
 20
49.590584
 30
0.0
 11
126.908825
 21
53.111027
 31
0.0
  0
SPLINE
  5
122
100
AcDbEntity
  8
0
 62
7
100
AcDbSpline
 70
8
 71
3
 72
8
 73
4
 74
0
 40
0
 40
0
 40
0
 40
0
 40
1
 40
1
 40
1
 40
1
 10
126.908825
 20
53.111027
 30
0.0
 10
130.892149
 20
49.646433
 30
0.0
 10
137.500340
 20
43.283149
 30
0.0
 10
138.021811
 20
38.780657
 30
0.0
  0
SPLINE
  5
123
100
AcDbEntity
  8
0
 62
7
100
AcDbSpline
 70
8
 71
3
 72
8
 73
4
 74
0
 40
0
 40
0
 40
0
 40
0
 40
1
 40
1
 40
1
 40
1
 10
138.021811
 20
38.780657
 30
0.0
 10
138.825348
 20
32.412245
 30
0.0
 10
138.450196
 20
25.990273
 30
0.0
 10
138.450196
 20
25.990273
 30
0.0
  0
LINE
  5
124
100
AcDbEntity
  8
0
 62
7
100
AcDbLine
 10
138.450196
 20
25.990273
 30
0.0
 11
146.164483
 21
40.814503
 31
0.0
  0
LINE
  5
125
100
AcDbEntity
  8
0
 62
7
100
AcDbLine
 10
146.164483
 20
40.814503
 30
0.0
 11
146.432541
 21
57.243793
 31
0.0
  0
LINE
  5
126
100
AcDbEntity
  8
0
 62
7
100
AcDbLine
 10
146.432541
 20
57.243793
 30
0.0
 11
128.789382
 21
75.425791
 31
0.0
  0
LINE
  5
127
100
AcDbEntity
  8
0
 62
7
100
AcDbLine
 10
128.789382
 20
75.425791
 30
0.0
 11
130.468689
 21
97.969132
 31
0.0
  0
LINE
  5
128
100
AcDbEntity
  8
0
 62
7
100
AcDbLine
 10
130.468689
 20
97.969132
 30
0.0
 11
128.486261
 21
124.834616
 31
0.0
  0
LINE
  5
129
100
AcDbEntity
  8
0
 62
7
100
AcDbLine
 10
128.486261
 20
124.834616
 30
0.0
 11
120.879692
 21
140.193585
 31
0.0
  0
LINE
  5
12a
100
AcDbEntity
  8
0
 62
7
100
AcDbLine
 10
120.879692
 20
140.193585
 30
0.0
 11
116.808778
 21
149.986587
 31
0.0
  0
LINE
  5
12b
100
AcDbEntity
  8
0
 62
7
100
AcDbLine
 10
116.808778
 20
149.986587
 30
0.0
 11
114.291068
 21
152.983969
 31
0.0
  0
LINE
  5
12c
100
AcDbEntity
  8
0
 62
7
100
AcDbLine
 10
114.291068
 20
152.983969
 30
0.0
 11
98.595276
 21
155.071209
 31
0.0
  0
LINE
  5
12d
100
AcDbEntity
  8
0
 62
7
100
AcDbLine
 10
98.595276
 20
155.071209
 30
0.0
 11
98.595276
 21
155.071209
 31
0.0
  0
SPLINE
  5
12e
100
AcDbEntity
  8
0
 62
7
100
AcDbSpline
 70
8
 71
3
 72
8
 73
4
 74
0
 40
0
 40
0
 40
0
 40
0
 40
1
 40
1
 40
1
 40
1
 10
95.215445
 20
125.035965
 30
0.0
 10
95.215445
 20
124.285472
 30
0.0
 10
94.607049
 20
123.677076
 30
0.0
 10
93.856556
 20
123.677076
 30
0.0
  0
SPLINE
  5
12f
100
AcDbEntity
  8
0
 62
7
100
AcDbSpline
 70
8
 71
3
 72
8
 73
4
 74
0
 40
0
 40
0
 40
0
 40
0
 40
1
 40
1
 40
1
 40
1
 10
93.856556
 20
123.677076
 30
0.0
 10
93.106063
 20
123.677076
 30
0.0
 10
92.497667
 20
124.285472
 30
0.0
 10
92.497667
 20
125.035965
 30
0.0
  0
SPLINE
  5
130
100
AcDbEntity
  8
0
 62
7
100
AcDbSpline
 70
8
 71
3
 72
8
 73
4
 74
0
 40
0
 40
0
 40
0
 40
0
 40
1
 40
1
 40
1
 40
1
 10
92.497667
 20
125.035965
 30
0.0
 10
92.497667
 20
125.786459
 30
0.0
 10
93.106063
 20
126.394854
 30
0.0
 10
93.856556
 20
126.394854
 30
0.0
  0
SPLINE
  5
131
100
AcDbEntity
  8
0
 62
7
100
AcDbSpline
 70
8
 71
3
 72
8
 73
4
 74
0
 40
0
 40
0
 40
0
 40
0
 40
1
 40
1
 40
1
 40
1
 10
93.856556
 20
126.394854
 30
0.0
 10
94.607049
 20
126.394854
 30
0.0
 10
95.215445
 20
125.786459
 30
0.0
 10
95.215445
 20
125.035965
 30
0.0
  0
LINE
  5
132
100
AcDbEntity
  8
0
 62
7
100
AcDbLine
 10
95.215445
 20
125.035965
 30
0.0
 11
95.215445
 21
125.035965
 31
0.0
  0
SPLINE
  5
133
100
AcDbEntity
  8
0
 62
7
100
AcDbSpline
 70
8
 71
3
 72
8
 73
4
 74
0
 40
0
 40
0
 40
0
 40
0
 40
1
 40
1
 40
1
 40
1
 10
122.215447
 20
125.035965
 30
0.0
 10
122.215447
 20
124.285472
 30
0.0
 10
121.607052
 20
123.677076
 30
0.0
 10
120.856558
 20
123.677076
 30
0.0
  0
SPLINE
  5
134
100
AcDbEntity
  8
0
 62
7
100
AcDbSpline
 70
8
 71
3
 72
8
 73
4
 74
0
 40
0
 40
0
 40
0
 40
0
 40
1
 40
1
 40
1
 40
1
 10
120.856558
 20
123.677076
 30
0.0
 10
120.106065
 20
123.677076
 30
0.0
 10
119.497670
 20
124.285472
 30
0.0
 10
119.497670
 20
125.035965
 30
0.0
  0
SPLINE
  5
135
100
AcDbEntity
  8
0
 62
7
100
AcDbSpline
 70
8
 71
3
 72
8
 73
4
 74
0
 40
0
 40
0
 40
0
 40
0
 40
1
 40
1
 40
1
 40
1
 10
119.497670
 20
125.035965
 30
0.0
 10
119.497670
 20
125.786459
 30
0.0
 10
120.106065
 20
126.394854
 30
0.0
 10
120.856558
 20
126.394854
 30
0.0
  0
SPLINE
  5
136
100
AcDbEntity
  8
0
 62
7
100
AcDbSpline
 70
8
 71
3
 72
8
 73
4
 74
0
 40
0
 40
0
 40
0
 40
0
 40
1
 40
1
 40
1
 40
1
 10
120.856558
 20
126.394854
 30
0.0
 10
121.607052
 20
126.394854
 30
0.0
 10
122.215447
 20
125.786459
 30
0.0
 10
122.215447
 20
125.035965
 30
0.0
  0
LINE
  5
137
100
AcDbEntity
  8
0
 62
7
100
AcDbLine
 10
122.215447
 20
125.035965
 30
0.0
 11
122.215447
 21
125.035965
 31
0.0
  0
SPLINE
  5
138
100
AcDbEntity
  8
0
 62
7
100
AcDbSpline
 70
8
 71
3
 72
8
 73
4
 74
0
 40
0
 40
0
 40
0
 40
0
 40
1
 40
1
 40
1
 40
1
 10
95.215445
 20
106.035966
 30
0.0
 10
95.215445
 20
105.285473
 30
0.0
 10
94.607049
 20
104.677078
 30
0.0
 10
93.856556
 20
104.677078
 30
0.0
  0
SPLINE
  5
139
100
AcDbEntity
  8
0
 62
7
100
AcDbSpline
 70
8
 71
3
 72
8
 73
4
 74
0
 40
0
 40
0
 40
0
 40
0
 40
1
 40
1
 40
1
 40
1
 10
93.856556
 20
104.677078
 30
0.0
 10
93.106063
 20
104.677078
 30
0.0
 10
92.497667
 20
105.285473
 30
0.0
 10
92.497667
 20
106.035966
 30
0.0
  0
SPLINE
  5
13a
100
AcDbEntity
  8
0
 62
7
100
AcDbSpline
 70
8
 71
3
 72
8
 73
4
 74
0
 40
0
 40
0
 40
0
 40
0
 40
1
 40
1
 40
1
 40
1
 10
92.497667
 20
106.035966
 30
0.0
 10
92.497667
 20
106.786460
 30
0.0
 10
93.106063
 20
107.394855
 30
0.0
 10
93.856556
 20
107.394855
 30
0.0
  0
SPLINE
  5
13b
100
AcDbEntity
  8
0
 62
7
100
AcDbSpline
 70
8
 71
3
 72
8
 73
4
 74
0
 40
0
 40
0
 40
0
 40
0
 40
1
 40
1
 40
1
 40
1
 10
93.856556
 20
107.394855
 30
0.0
 10
94.607049
 20
107.394855
 30
0.0
 10
95.215445
 20
106.786460
 30
0.0
 10
95.215445
 20
106.035966
 30
0.0
  0
LINE
  5
13c
100
AcDbEntity
  8
0
 62
7
100
AcDbLine
 10
95.215445
 20
106.035966
 30
0.0
 11
95.215445
 21
106.035966
 31
0.0
  0
SPLINE
  5
13d
100
AcDbEntity
  8
0
 62
7
100
AcDbSpline
 70
8
 71
3
 72
8
 73
4
 74
0
 40
0
 40
0
 40
0
 40
0
 40
1
 40
1
 40
1
 40
1
 10
122.215447
 20
106.035966
 30
0.0
 10
122.215447
 20
105.285473
 30
0.0
 10
121.607052
 20
104.677078
 30
0.0
 10
120.856558
 20
104.677078
 30
0.0
  0
SPLINE
  5
13e
100
AcDbEntity
  8
0
 62
7
100
AcDbSpline
 70
8
 71
3
 72
8
 73
4
 74
0
 40
0
 40
0
 40
0
 40
0
 40
1
 40
1
 40
1
 40
1
 10
120.856558
 20
104.677078
 30
0.0
 10
120.106065
 20
104.677078
 30
0.0
 10
119.497670
 20
105.285473
 30
0.0
 10
119.497670
 20
106.035966
 30
0.0
  0
SPLINE
  5
13f
100
AcDbEntity
  8
0
 62
7
100
AcDbSpline
 70
8
 71
3
 72
8
 73
4
 74
0
 40
0
 40
0
 40
0
 40
0
 40
1
 40
1
 40
1
 40
1
 10
119.497670
 20
106.035966
 30
0.0
 10
119.497670
 20
106.786460
 30
0.0
 10
120.106065
 20
107.394855
 30
0.0
 10
120.856558
 20
107.394855
 30
0.0
  0
SPLINE
  5
140
100
AcDbEntity
  8
0
 62
7
100
AcDbSpline
 70
8
 71
3
 72
8
 73
4
 74
0
 40
0
 40
0
 40
0
 40
0
 40
1
 40
1
 40
1
 40
1
 10
120.856558
 20
107.394855
 30
0.0
 10
121.607052
 20
107.394855
 30
0.0
 10
122.215447
 20
106.786460
 30
0.0
 10
122.215447
 20
106.035966
 30
0.0
  0
LINE
  5
141
100
AcDbEntity
  8
0
 62
7
100
AcDbLine
 10
122.215447
 20
106.035966
 30
0.0
 11
122.215447
 21
106.035966
 31
0.0
  0
ENDSEC
  0
SECTION
  2
OBJECTS
  0
DICTIONARY
  5
C
330
0
100
AcDbDictionary
  3
ACAD_GROUP
350
D
  3
ACAD_MLINESTYLE
350
17
  0
DICTIONARY
  5
D
330
C
100
AcDbDictionary
  0
DICTIONARY
  5
1A
330
C
100
AcDbDictionary
  0
DICTIONARY
  5
17
330
C
100
AcDbDictionary
  3
STANDARD
350
18
  0
DICTIONARY
  5
19
330
C
100
AcDbDictionary
  0
ENDSEC
  0
EOF
