<?xml version="1.0" encoding="UTF-8" standalone="no"?>
<!-- Generator: Adobe Illustrator 19.1.0, SVG Export Plug-In . SVG Version: 6.00 Build 0)  -->

<svg
   xmlns:dc="http://purl.org/dc/elements/1.1/"
   xmlns:cc="http://creativecommons.org/ns#"
   xmlns:rdf="http://www.w3.org/1999/02/22-rdf-syntax-ns#"
   xmlns:svg="http://www.w3.org/2000/svg"
   xmlns="http://www.w3.org/2000/svg"
   xmlns:sodipodi="http://sodipodi.sourceforge.net/DTD/sodipodi-0.dtd"
   xmlns:inkscape="http://www.inkscape.org/namespaces/inkscape"
   version="1.0"
   id="Calque_1"
   x="0px"
   y="0px"
   viewBox="0 0 960 560"
   style="enable-background:new 0 0 960 560;"
   xml:space="preserve"
   inkscape:version="0.91 r13725"
   sodipodi:docname="SpaceEuglenaJoystickCOPY.svg"><metadata
     id="metadata77"><rdf:RDF><cc:Work
         rdf:about=""><dc:format>image/svg+xml</dc:format><dc:type
           rdf:resource="http://purl.org/dc/dcmitype/StillImage" /><dc:title></dc:title></cc:Work></rdf:RDF></metadata><defs
     id="defs75" /><sodipodi:namedview
     pagecolor="#ffffff"
     bordercolor="#666666"
     borderopacity="1"
     objecttolerance="10"
     gridtolerance="10"
     guidetolerance="10"
     inkscape:pageopacity="0"
     inkscape:pageshadow="2"
     inkscape:window-width="1920"
     inkscape:window-height="1017"
     id="namedview73"
     showgrid="false"
     inkscape:zoom="0.85736698"
     inkscape:cx="394.74504"
     inkscape:cy="330.52026"
     inkscape:window-x="-8"
     inkscape:window-y="-8"
     inkscape:window-maximized="1"
     inkscape:current-layer="g5" /><style
     type="text/css"
     id="style3">
	.st0{fill-rule:evenodd;clip-rule:evenodd;}
</style><g
     id="g5"><path
       style="clip-rule:evenodd;fill:none;fill-rule:evenodd;stroke:#000000;stroke-width:1.25293744;stroke-opacity:1"
       d="m 427.49957,63.021361 -17.84498,35.459293 -27.33114,81.539216 3.98561,113.39524 18.70601,61.18177 -52.30402,60.93641 c 0,0 -6.45247,19.7205 0.76042,60.67925 7.02308,41.14837 43.46588,54.23237 43.46588,54.23237 l -6.83205,-18.96226 -4.3673,-21.04916 3.98857,-23.13306 37.76708,-39.18376 4.55963,14.91265 49.16171,58.214 14.42747,35.64847 41.37692,24.08194 41.75859,-7.20655 41.37986,-45.12813 21.83059,-7.77409 0.94684,16.6862 -74.5962,62.76614 -3.60688,18.96226 27.14472,-1.89769 -0.94979,-3.60328 -20.30971,1.51639 1.51789,-11.18522 76.1141,-64.47467 0,-26.54717 -34.73422,12.32621 -35.87341,40.96026 -38.91217,7.39279 -37.01552,-20.66785 -9.4891,-32.4265 34.54485,-63.90122 1.05335,-12.47401 c 14.11414,12.27612 37.52899,34.82319 39.37672,50.7769 2.84718,22.56524 1.5179,45.32026 1.5179,45.32026 l 27.33409,-52.5268 0.94981,-58.21402 -62.51513,-64.4244 5.9503,-79.87798 -7.02435,-95.19266 -26.95241,-54.42155 -14.4245,-34.699614 -8.92102,-10.620645 -55.61501,-7.39573 z"
       id="path9"
       inkscape:connector-curvature="0" /><g
       id="g7271"
       transform="translate(255.43321,29.742223)"><circle
         r="4.8149605"
         cy="139.70323"
         cx="155.27562"
         id="path7214"
         style="fill:none;fill-opacity:1;stroke:#000000;stroke-width:1;stroke-linecap:butt;stroke-linejoin:round;stroke-miterlimit:4;stroke-dasharray:none;stroke-opacity:1" /><circle
         r="4.8149605"
         cy="139.70323"
         cx="250.94492"
         id="path7214-6"
         style="fill:none;fill-opacity:1;stroke:#000000;stroke-width:1;stroke-linecap:butt;stroke-linejoin:round;stroke-miterlimit:4;stroke-dasharray:none;stroke-opacity:1" /><circle
         r="4.8149605"
         cy="207.02606"
         cx="155.27562"
         id="path7214-6-3"
         style="fill:none;fill-opacity:1;stroke:#000000;stroke-width:1;stroke-linecap:butt;stroke-linejoin:round;stroke-miterlimit:4;stroke-dasharray:none;stroke-opacity:1" /><circle
         r="4.8149605"
         cy="207.02606"
         cx="250.94492"
         id="path7214-6-3-4"
         style="fill:none;fill-opacity:1;stroke:#000000;stroke-width:1;stroke-linecap:butt;stroke-linejoin:round;stroke-miterlimit:4;stroke-dasharray:none;stroke-opacity:1" /></g></g></svg>